<svg width="228" height="24" viewBox="0 0 228 24" fill="none" xmlns="http://www.w3.org/2000/svg">
<path d="M3.92 1.248V11.856C3.92 12.384 3.936 12.872 3.968 13.32C4.016 13.752 4.112 14.12 4.256 14.424C4.416 14.728 4.648 14.968 4.952 15.144C5.256 15.304 5.672 15.384 6.2 15.384C6.728 15.384 7.144 15.304 7.448 15.144C7.752 14.968 7.976 14.728 8.12 14.424C8.28 14.12 8.376 13.752 8.408 13.32C8.456 12.872 8.48 12.384 8.48 11.856V1.248H12.08V11.376C12.08 12.528 12 13.536 11.84 14.4C11.696 15.264 11.408 15.984 10.976 16.56C10.544 17.136 9.944 17.568 9.176 17.856C8.408 18.144 7.416 18.288 6.2 18.288C4.984 18.288 3.992 18.144 3.224 17.856C2.456 17.568 1.856 17.136 1.424 16.56C0.992 15.984 0.696 15.264 0.536 14.4C0.392 13.536 0.32 12.528 0.32 11.376V1.248H3.92ZM15.1666 15.24H18.0226V8.376H15.1666V5.616H21.5746V9.12H21.7426C21.8546 8.672 22.0066 8.24 22.1986 7.824C22.4066 7.392 22.6626 7.016 22.9666 6.696C23.2866 6.36 23.6706 6.096 24.1186 5.904C24.5666 5.712 25.0946 5.616 25.7026 5.616H26.8786V8.88H24.2386C23.3586 8.88 22.6946 9.144 22.2466 9.672C21.7986 10.184 21.5746 10.816 21.5746 11.568V15.24H25.6546V18H15.1666V15.24ZM29.1973 0.24H32.7493V7.872H32.9173C33.2213 7.136 33.6613 6.528 34.2373 6.048C34.8133 5.568 35.5973 5.328 36.5893 5.328C37.2773 5.328 37.9013 5.456 38.4613 5.712C39.0373 5.968 39.5253 6.36 39.9253 6.888C40.3413 7.416 40.6613 8.088 40.8853 8.904C41.1253 9.72 41.2453 10.688 41.2453 11.808C41.2453 12.928 41.1253 13.896 40.8853 14.712C40.6613 15.528 40.3413 16.2 39.9253 16.728C39.5253 17.256 39.0373 17.648 38.4613 17.904C37.9013 18.16 37.2773 18.288 36.5893 18.288C35.5973 18.288 34.8133 18.056 34.2373 17.592C33.6613 17.112 33.2213 16.496 32.9173 15.744H32.7493V18H29.1973V0.24ZM35.0533 15.528C35.8533 15.528 36.4693 15.288 36.9013 14.808C37.3333 14.312 37.5493 13.632 37.5493 12.768V10.848C37.5493 9.984 37.3333 9.312 36.9013 8.832C36.4693 8.336 35.8533 8.088 35.0533 8.088C34.4293 8.088 33.8853 8.24 33.4213 8.544C32.9733 8.848 32.7493 9.328 32.7493 9.984V13.632C32.7493 14.288 32.9733 14.768 33.4213 15.072C33.8853 15.376 34.4293 15.528 35.0533 15.528ZM53.8599 18C53.1239 18 52.5319 17.816 52.0839 17.448C51.6359 17.064 51.3719 16.52 51.2919 15.816H51.1719C50.9479 16.632 50.4999 17.248 49.8279 17.664C49.1719 18.08 48.3639 18.288 47.4039 18.288C46.2039 18.288 45.2359 17.968 44.4999 17.328C43.7799 16.672 43.4199 15.76 43.4199 14.592C43.4199 13.296 43.8919 12.336 44.8359 11.712C45.7799 11.088 47.1639 10.776 48.9879 10.776H50.9799V10.152C50.9799 9.416 50.8039 8.864 50.4519 8.496C50.1159 8.112 49.5399 7.92 48.7239 7.92C47.9719 7.92 47.3639 8.064 46.8999 8.352C46.4359 8.64 46.0359 9.016 45.6999 9.48L43.7559 7.752C44.1719 7.048 44.8199 6.472 45.6999 6.024C46.5959 5.56 47.7399 5.328 49.1319 5.328C50.8279 5.328 52.1479 5.72 53.0919 6.504C54.0519 7.272 54.5319 8.44 54.5319 10.008V15.432H55.8999V18H53.8599ZM48.7479 15.96C49.3719 15.96 49.8999 15.808 50.3319 15.504C50.7639 15.2 50.9799 14.76 50.9799 14.184V12.696H49.0839C47.6279 12.696 46.8999 13.184 46.8999 14.16V14.64C46.8999 15.072 47.0679 15.4 47.4039 15.624C47.7399 15.848 48.1879 15.96 48.7479 15.96ZM58.1225 18V5.616H61.6745V7.872H61.8185C61.9625 7.52 62.1385 7.192 62.3465 6.888C62.5545 6.584 62.8025 6.32 63.0905 6.096C63.3945 5.856 63.7385 5.672 64.1225 5.544C64.5225 5.4 64.9705 5.328 65.4665 5.328C66.0585 5.328 66.6025 5.432 67.0985 5.64C67.5945 5.832 68.0185 6.128 68.3705 6.528C68.7225 6.928 68.9945 7.416 69.1865 7.992C69.3945 8.568 69.4985 9.232 69.4985 9.984V18H65.9465V10.464C65.9465 8.864 65.2505 8.064 63.8585 8.064C63.5865 8.064 63.3145 8.104 63.0425 8.184C62.7865 8.248 62.5545 8.36 62.3465 8.52C62.1385 8.664 61.9705 8.848 61.8425 9.072C61.7305 9.296 61.6745 9.56 61.6745 9.864V18H58.1225ZM95.6878 10.536L95.8798 5.856H95.6638L92.5438 14.472L89.4238 5.856H89.2078L89.3998 10.536V18H86.2798V1.248H90.5278L92.5918 6.888H92.7838L94.8478 1.248H98.8078V18H95.6878V10.536ZM111.422 18C110.686 18 110.094 17.816 109.646 17.448C109.198 17.064 108.934 16.52 108.854 15.816H108.734C108.51 16.632 108.062 17.248 107.39 17.664C106.734 18.08 105.926 18.288 104.966 18.288C103.766 18.288 102.798 17.968 102.062 17.328C101.342 16.672 100.982 15.76 100.982 14.592C100.982 13.296 101.454 12.336 102.398 11.712C103.342 11.088 104.726 10.776 106.55 10.776H108.542V10.152C108.542 9.416 108.366 8.864 108.014 8.496C107.678 8.112 107.102 7.92 106.286 7.92C105.534 7.92 104.926 8.064 104.462 8.352C103.998 8.64 103.598 9.016 103.262 9.48L101.318 7.752C101.734 7.048 102.382 6.472 103.262 6.024C104.158 5.56 105.302 5.328 106.694 5.328C108.39 5.328 109.71 5.72 110.654 6.504C111.614 7.272 112.094 8.44 112.094 10.008V15.432H113.462V18H111.422ZM106.31 15.96C106.934 15.96 107.462 15.808 107.894 15.504C108.326 15.2 108.542 14.76 108.542 14.184V12.696H106.646C105.19 12.696 104.462 13.184 104.462 14.16V14.64C104.462 15.072 104.63 15.4 104.966 15.624C105.302 15.848 105.75 15.96 106.31 15.96ZM115.685 18V5.616H119.237V7.872H119.381C119.525 7.52 119.701 7.192 119.909 6.888C120.117 6.584 120.365 6.32 120.653 6.096C120.957 5.856 121.301 5.672 121.685 5.544C122.085 5.4 122.533 5.328 123.029 5.328C123.621 5.328 124.165 5.432 124.661 5.64C125.157 5.832 125.581 6.128 125.933 6.528C126.285 6.928 126.557 7.416 126.749 7.992C126.957 8.568 127.061 9.232 127.061 9.984V18H123.509V10.464C123.509 8.864 122.813 8.064 121.421 8.064C121.149 8.064 120.877 8.104 120.605 8.184C120.349 8.248 120.117 8.36 119.909 8.52C119.701 8.664 119.533 8.848 119.405 9.072C119.293 9.296 119.237 9.56 119.237 9.864V18H115.685ZM140.204 18C139.468 18 138.876 17.816 138.428 17.448C137.98 17.064 137.716 16.52 137.636 15.816H137.516C137.292 16.632 136.844 17.248 136.172 17.664C135.516 18.08 134.708 18.288 133.748 18.288C132.548 18.288 131.58 17.968 130.844 17.328C130.124 16.672 129.764 15.76 129.764 14.592C129.764 13.296 130.236 12.336 131.18 11.712C132.124 11.088 133.508 10.776 135.332 10.776H137.324V10.152C137.324 9.416 137.148 8.864 136.796 8.496C136.46 8.112 135.884 7.92 135.068 7.92C134.316 7.92 133.708 8.064 133.244 8.352C132.78 8.64 132.38 9.016 132.044 9.48L130.1 7.752C130.516 7.048 131.164 6.472 132.044 6.024C132.94 5.56 134.084 5.328 135.476 5.328C137.172 5.328 138.492 5.72 139.436 6.504C140.396 7.272 140.876 8.44 140.876 10.008V15.432H142.244V18H140.204ZM135.092 15.96C135.716 15.96 136.244 15.808 136.676 15.504C137.108 15.2 137.324 14.76 137.324 14.184V12.696H135.428C133.972 12.696 133.244 13.184 133.244 14.16V14.64C133.244 15.072 133.412 15.4 133.748 15.624C134.084 15.848 134.532 15.96 135.092 15.96ZM156.898 19.248C156.898 20.56 156.346 21.528 155.242 22.152C154.138 22.776 152.402 23.088 150.034 23.088C148.85 23.088 147.874 23.016 147.106 22.872C146.338 22.744 145.722 22.552 145.258 22.296C144.81 22.04 144.49 21.736 144.298 21.384C144.122 21.032 144.034 20.648 144.034 20.232C144.034 19.528 144.242 18.992 144.658 18.624C145.074 18.272 145.658 18 146.41 17.808V17.664C145.882 17.504 145.458 17.28 145.138 16.992C144.834 16.688 144.682 16.264 144.682 15.72C144.682 15.112 144.882 14.664 145.282 14.376C145.698 14.088 146.242 13.864 146.914 13.704V13.56C146.178 13.208 145.602 12.712 145.186 12.072C144.786 11.432 144.586 10.656 144.586 9.744C144.586 9.024 144.714 8.392 144.97 7.848C145.226 7.288 145.586 6.824 146.05 6.456C146.53 6.088 147.098 5.808 147.754 5.616C148.41 5.424 149.146 5.328 149.962 5.328C150.746 5.328 151.474 5.416 152.146 5.592V4.92C152.146 4.44 152.314 4.04 152.65 3.72C152.986 3.4 153.45 3.24 154.042 3.24H156.226V5.832H153.25V6.048C153.922 6.4 154.442 6.888 154.81 7.512C155.194 8.12 155.386 8.864 155.386 9.744C155.386 10.464 155.258 11.096 155.002 11.64C154.746 12.184 154.378 12.648 153.898 13.032C153.418 13.4 152.842 13.68 152.17 13.872C151.514 14.064 150.778 14.16 149.962 14.16C149.594 14.16 149.242 14.144 148.906 14.112C148.57 14.064 148.25 14 147.946 13.92C147.77 14.016 147.618 14.136 147.49 14.28C147.378 14.424 147.322 14.608 147.322 14.832C147.322 15.024 147.37 15.176 147.466 15.288C147.562 15.4 147.69 15.488 147.85 15.552C148.026 15.6 148.226 15.632 148.45 15.648C148.674 15.664 148.906 15.672 149.146 15.672H151.978C152.858 15.672 153.61 15.76 154.234 15.936C154.858 16.112 155.37 16.36 155.77 16.68C156.17 17 156.458 17.376 156.634 17.808C156.81 18.24 156.898 18.72 156.898 19.248ZM153.538 19.512C153.538 19.192 153.41 18.936 153.154 18.744C152.898 18.568 152.41 18.48 151.69 18.48H147.442C147.122 18.752 146.962 19.088 146.962 19.488C146.962 19.872 147.122 20.184 147.442 20.424C147.778 20.68 148.338 20.808 149.122 20.808H151.21C152.026 20.808 152.618 20.696 152.986 20.472C153.354 20.248 153.538 19.928 153.538 19.512ZM149.962 11.904C150.682 11.904 151.202 11.728 151.522 11.376C151.858 11.024 152.026 10.576 152.026 10.032V9.456C152.026 8.912 151.858 8.464 151.522 8.112C151.202 7.76 150.682 7.584 149.962 7.584C149.258 7.584 148.746 7.76 148.426 8.112C148.106 8.464 147.946 8.912 147.946 9.456V10.032C147.946 10.576 148.106 11.024 148.426 11.376C148.746 11.728 149.258 11.904 149.962 11.904ZM164.833 18.288C162.753 18.288 161.177 17.712 160.105 16.56C159.033 15.408 158.497 13.84 158.497 11.856C158.497 10.848 158.633 9.944 158.905 9.144C159.193 8.328 159.593 7.64 160.105 7.08C160.633 6.504 161.265 6.072 162.001 5.784C162.753 5.48 163.593 5.328 164.521 5.328C165.449 5.328 166.281 5.48 167.017 5.784C167.753 6.072 168.377 6.488 168.889 7.032C169.401 7.576 169.793 8.24 170.065 9.024C170.353 9.792 170.497 10.656 170.497 11.616V12.672H162.025V12.888C162.025 13.688 162.273 14.336 162.769 14.832C163.265 15.312 163.993 15.552 164.953 15.552C165.689 15.552 166.321 15.416 166.849 15.144C167.377 14.856 167.833 14.48 168.217 14.016L170.137 16.104C169.657 16.696 168.985 17.208 168.121 17.64C167.257 18.072 166.161 18.288 164.833 18.288ZM164.545 7.872C163.777 7.872 163.161 8.112 162.697 8.592C162.249 9.056 162.025 9.688 162.025 10.488V10.68H167.017V10.488C167.017 9.672 166.793 9.032 166.345 8.568C165.913 8.104 165.313 7.872 164.545 7.872ZM172.408 18V5.616H175.264V7.44H175.432C175.624 6.864 175.896 6.368 176.248 5.952C176.616 5.536 177.128 5.328 177.784 5.328C178.984 5.328 179.72 6.032 179.992 7.44H180.136C180.232 7.152 180.352 6.88 180.496 6.624C180.64 6.368 180.816 6.144 181.024 5.952C181.232 5.76 181.48 5.608 181.768 5.496C182.056 5.384 182.392 5.328 182.776 5.328C184.504 5.328 185.368 6.6 185.368 9.144V18H182.512V9.504C182.512 8.928 182.408 8.528 182.2 8.304C182.008 8.064 181.752 7.944 181.432 7.944C181.128 7.944 180.864 8.048 180.64 8.256C180.432 8.448 180.328 8.752 180.328 9.168V18H177.448V9.504C177.448 8.928 177.352 8.528 177.16 8.304C176.984 8.064 176.736 7.944 176.416 7.944C176.096 7.944 175.824 8.048 175.6 8.256C175.376 8.448 175.264 8.752 175.264 9.168V18H172.408ZM193.614 18.288C191.534 18.288 189.958 17.712 188.886 16.56C187.814 15.408 187.278 13.84 187.278 11.856C187.278 10.848 187.414 9.944 187.686 9.144C187.974 8.328 188.374 7.64 188.886 7.08C189.414 6.504 190.046 6.072 190.782 5.784C191.534 5.48 192.374 5.328 193.302 5.328C194.23 5.328 195.062 5.48 195.798 5.784C196.534 6.072 197.158 6.488 197.67 7.032C198.182 7.576 198.574 8.24 198.846 9.024C199.134 9.792 199.278 10.656 199.278 11.616V12.672H190.806V12.888C190.806 13.688 191.054 14.336 191.55 14.832C192.046 15.312 192.774 15.552 193.734 15.552C194.47 15.552 195.102 15.416 195.63 15.144C196.158 14.856 196.614 14.48 196.998 14.016L198.918 16.104C198.438 16.696 197.766 17.208 196.902 17.64C196.038 18.072 194.942 18.288 193.614 18.288ZM193.326 7.872C192.558 7.872 191.942 8.112 191.478 8.592C191.03 9.056 190.806 9.688 190.806 10.488V10.68H195.798V10.488C195.798 9.672 195.574 9.032 195.126 8.568C194.694 8.104 194.094 7.872 193.326 7.872ZM202.029 18V5.616H205.581V7.872H205.725C205.869 7.52 206.045 7.192 206.253 6.888C206.461 6.584 206.709 6.32 206.997 6.096C207.301 5.856 207.645 5.672 208.029 5.544C208.429 5.4 208.877 5.328 209.373 5.328C209.965 5.328 210.509 5.432 211.005 5.64C211.501 5.832 211.925 6.128 212.277 6.528C212.629 6.928 212.901 7.416 213.093 7.992C213.301 8.568 213.405 9.232 213.405 9.984V18H209.853V10.464C209.853 8.864 209.157 8.064 207.765 8.064C207.493 8.064 207.221 8.104 206.949 8.184C206.693 8.248 206.461 8.36 206.253 8.52C206.045 8.664 205.877 8.848 205.749 9.072C205.637 9.296 205.581 9.56 205.581 9.864V18H202.029ZM223.019 18C221.739 18 220.787 17.664 220.163 16.992C219.539 16.32 219.227 15.464 219.227 14.424V8.376H215.867V5.616H218.051C218.579 5.616 218.955 5.512 219.179 5.304C219.403 5.096 219.515 4.712 219.515 4.152V1.248H222.779V5.616H227.603V8.376H222.779V15.24H227.603V18H223.019Z" fill="#070707"/>
</svg>
